<?xml version="1.0" encoding="UTF-8"?>
<svg id="Layer_2" data-name="Layer 2" xmlns="http://www.w3.org/2000/svg" viewBox="0 0 302.08 60">
  <g id="Page_1" data-name="Page 1">
    <g id="Logo_Black" data-name="Logo Black">
      <path id="A" d="M46.3,58.23c-4.81-1.79-5.62-4.88-7.63-9.61-3.95-9.59-9.88-22.45-11.45-27.38-.49-1.91-.67-4.36.26-5.9.24-.56,1.47-1.87.46-1.87-2.96.92-5.09,3.71-7.03,6.92-1.7,3.1-1.88,3.89-3.79,8.06-3.49,7.81-9.73,21.79-10.8,24.19-.89,1.96-2.63,4.04-4.66,4.87-.89.35-2.88,1.36-.59,1.43,3.01-.04,11.52.07,14.51-.04,1.87-.54-2.1-1.1-2.54-1.23-1.56-.29-3.77-2.2-3.3-3.65.21-.51.97-.67,1.54-.75,5.65-.62,12.34-5.23,14.56-11.15.21-.42.46-1.54.9-1.33,1.89,3.47,4.81,10.78,5.29,13.66.35,1.89-1.31,2.88-2.79,3.69-1.04.66.06.83.68.8,2.66,0,11.02,0,14.74,0,.61.03,2.77.07,1.71-.68l-.06-.04ZM25.12,37.08c-.52,3.86-3.36,7.36-6.7,9.41-1.94,1.27-5.23,2.25-7.32,1.92-.36-.08-.34-.29-.22-.55,1.47-3.05,8.79-20.43,9.75-21.77,1,2.07,2.3,5.39,3.48,8.06.33.88,1.08,2.24,1.02,2.85v.07Z"/>
      <path id="c" d="M69.88,49.02c-.69,4.6-5.05,8.62-9.5,9.57-8.1,1.91-15.51-5.81-15.18-13.63-.17-6.82,5.17-13.64,12.27-13.8,4.17-.18,10.65,1.83,9.95,6.95-.61,4.12-6.2,5.84-9.55,3.86-.44-.28-.62-.84,0-.95.66-.16,1.77.2,2.66.05.62-.08,1.22-.34,1.69-.74,1.45-1.23,1.36-3.64.57-5.22-1.37-2.98-5.28-3.54-7.87-1.78-3.85,2.1-4.74,7.88-4.01,12.24.73,5.86,5.55,11.67,11.67,10.55,2.53-.47,4.69-2.64,5.76-4.87.3-.49,1.11-3.3,1.54-2.3v.07Z"/>
      <path id="h" d="M100.32,58.53c-.1.57-.57.36-1.13.4-.34,0-.77,0-1.26,0-3.65-.1-9.67.18-11.14-.11-.51-.72.99-.82,1.43-1.11,1.55-.83,2.55-2.78,2.28-4.49-.54-4.85,2.73-19.07-4.69-18.97-3.09.23-4.77,3.5-5.01,6.58-.09,1.42-.03,2.05-.04,3.69.08,4.17-.16,8.11.11,10.18.32,1.69,1.66,3.14,3.29,3.43.61.2.44.85-.1.76-1.2-.07-6.98.18-10.53.08-1.64-.03-3.84-.18-2.2-.87,10.91-1.29-7.24-50.59,15.16-58,.45-.21,1.3-.16.98.48-10.01,6.88-6.05,26.35-6.66,36.82.02.06.06.02.12-.1.22-.44.44-1,.7-1.47,3.61-7.38,14.08-6.07,14.78,3.27.12,3.58,0,12.57.04,14.5-.06,1.9,1.17,4.09,3.13,4.42.28.09.64.18.72.44v.06Z"/>
      <path id="a" d="M133.12,57c-2.06,3.23-8.76,2.05-8.81-2.29-3.01,4.36-12.03,5.38-17.28,2.62-5.35-2.29-5.28-7.79,0-10.08,4.99-2.43,12.33-1.59,16.77.93-.11-2.31-.37-5.76-.76-10.33-.3-5.75-7.68-8.81-12.11-5.25-3.82,3.22-2.13,7.21,2.92,8.13-.12,1.2-2.21,1.09-6.39,2.71-12.03-13.9,20.37-20.54,20.49-3.56.11,1,.99,10.38,1.36,15.33.71,3.82,3.62.6,3.81,1.78ZM124.15,52.51c1.04-6.32-15.35-6.76-14.65-.42-.79,5.96,13.97,6.24,14.65.42Z"/>
      <path id="a-2" data-name="a" d="M165.06,57c-2.06,3.23-8.76,2.05-8.81-2.29-3.01,4.36-12.03,5.38-17.28,2.62-5.35-2.29-5.28-7.79,0-10.08,4.99-2.43,12.33-1.59,16.77.93-.11-2.31-.37-5.76-.76-10.33-.3-5.75-7.68-8.81-12.11-5.25-3.82,3.22-2.13,7.21,2.92,8.13-.12,1.2-2.21,1.09-6.39,2.71-12.03-13.9,20.37-20.54,20.49-3.56.11,1,.99,10.38,1.36,15.33.71,3.82,3.62.6,3.81,1.78ZM156.09,52.51c1.04-6.32-15.35-6.76-14.65-.42-.79,5.96,13.97,6.24,14.65.42Z"/>
      <path id="r" d="M180.21,58.53c.3.41-.79.41-1.15.43-2.63,0-8.75.02-11.67,0-.57-.03-1.55-.08-.83-.65,1.63-1.03,3.36-2.65,3.11-5.09-.28-3.58-.83-13.12-1.2-16.56-.14-1.02-2.34-1.38-2.12-2.38.88-.9,3.22-1.76,4.58-2.56,1.19-.48,3.54-2.28,3.59-.78.25,3.43,1.12,15.99,1.48,21.09.02,3.51,1.4,4.67,4.18,6.46l.03.04ZM183.01,34.13c.41,5.13-7.14,5.09-7.13-.38-.11-4.75,6.8-4.57,7.12.24v.15Z"/>
      <path id="w" d="M202.64,53.88c-.54,1.57-1.82,4.08-2.42,5.43-.13.24-.38.89-.6.46-1.63-3.98-8.33-21.32-9.92-25.13-.42-1.29-3.17-2.03-3.77-2.48-.19-.34.66-.36,1.52-.45,2.01-.05,4.72-.09,6.62.09.36.08.5.25.64.56.75,1.91,3.8,10,5.93,15.58.89,2.36,1.62,4.25,1.92,5.07.1.27.15.52.08.81v.06ZM219.1,35.41c.14,6.06-4.64,14.75-10.48,23.89-.26.33-.76,1.12-1.04.41-1.42-3.74-9.13-24.25-10.33-27.47-.37-.88,1.21-.55,1.72-.64,1.52.06,7.61-.38,6.57.64-.57.63-1.86,1.09-1.52,2.01.29.95,1.08,3.27,2.35,6.99.92,2.67,1.91,5.54,2.76,7.99.28.68.61,2.35,1.42,2.25.55-.15,1.02-1.01,1.34-1.6,2.12-4.59,3.98-8.66,2.92-12.9-.86-2.51-2.72-2.37-4.8-1.54-1.1.36-1.17-.31-.78-1.04,2.36-3.85,9.29-5.27,9.86.91v.11Z"/>
      <path id="a-3" data-name="a" d="M252.76,57c-2.06,3.23-8.76,2.05-8.81-2.29-3.01,4.36-12.03,5.38-17.28,2.62-5.35-2.29-5.28-7.79,0-10.08,4.99-2.43,12.33-1.59,16.77.93-.11-2.31-.37-5.76-.76-10.33-.3-5.75-7.68-8.81-12.11-5.25-3.82,3.22-2.13,7.21,2.92,8.13-.12,1.2-2.21,1.09-6.39,2.71-12.03-13.9,20.37-20.54,20.49-3.56.11,1,.99,10.38,1.36,15.33.71,3.82,3.62.6,3.81,1.78ZM243.78,52.51c1.04-6.32-15.35-6.76-14.65-.42-.79,5.96,13.97,6.24,14.65.42Z"/>
      <path id="l" d="M271.98.18c-14.21,10.9-2.47,40.36-7.4,51.65-3.12,7.49,4.95,4.92,3.84,7.03-.05-.54-15.79,1.12-13.13-.85,10.38-4.19-10.37-50.41,16.68-57.84Z"/>
      <path id="a-4" data-name="a" d="M302.08,57c-2.06,3.23-8.76,2.05-8.81-2.29-3.01,4.36-12.03,5.38-17.28,2.62-5.35-2.29-5.28-7.79,0-10.08,4.99-2.43,12.33-1.59,16.77.93-.11-2.31-.37-5.76-.76-10.33-.3-5.75-7.68-8.81-12.11-5.25-3.82,3.22-2.13,7.21,2.92,8.13-.12,1.2-2.21,1.09-6.39,2.71-12.03-13.9,20.37-20.54,20.49-3.56.11,1,.99,10.38,1.36,15.33.71,3.82,3.62.6,3.81,1.78ZM293.11,52.51c1.04-6.32-15.35-6.76-14.65-.42-.79,5.96,13.97,6.24,14.65.42Z"/>
    </g>
  </g>
</svg>